<?xml version="1.0" standalone="no"?>
<!DOCTYPE svg PUBLIC "-//W3C//DTD SVG 20010904//EN"
 "http://www.w3.org/TR/2001/REC-SVG-20010904/DTD/svg10.dtd">
<svg version="1.0" xmlns="http://www.w3.org/2000/svg"
 width="500.000000pt" height="500.000000pt" viewBox="0 0 500.000000 500.000000"
 preserveAspectRatio="xMidYMid meet">

<g transform="translate(0.000000,500.000000) scale(0.100000,-0.100000)"
fill="#fff" stroke="none">
<path d="M2316 2550 c-279 -726 -510 -1329 -513 -1340 -5 -19 -1 -20 125 -20
l130 0 10 28 c5 15 235 614 511 1331 276 716 501 1307 501 1312 0 5 -58 9
-128 9 l-129 0 -507 -1320z"/>
<path d="M810 2939 l-685 -317 0 -123 0 -123 684 -318 c377 -175 686 -318 688
-318 2 0 3 73 3 163 l0 163 -517 208 c-285 114 -521 211 -526 215 -4 4 226
103 510 220 285 118 521 217 526 221 4 3 6 78 5 166 l-3 159 -685 -316z"/>
<path d="M3420 3101 l0 -158 555 -218 c305 -120 552 -222 548 -226 -5 -4 -251
-103 -548 -220 -297 -116 -543 -215 -548 -219 -4 -4 -6 -77 -5 -163 l3 -156
715 318 715 318 0 123 0 123 -640 283 c-352 156 -675 299 -717 318 l-78 35 0
-158z"/>
</g>
</svg>
